<?xml version="1.0" encoding="UTF-8"?>
<svg id="Layer_1" xmlns="http://www.w3.org/2000/svg" version="1.1" viewBox="0 0 1920 1080">
  <!-- Generator: Adobe Illustrator 30.2.1, SVG Export Plug-In . SVG Version: 2.1.1 Build 1)  -->
  <defs>
    <style>
      .st0, .st1 {
        fill: #fff;
      }

      .st1 {
        isolation: isolate;
        opacity: .15;
      }
    </style>
  </defs>
  <path class="st1" d="M331.05,999.93c-3.62-38.55,29.36-65.5-2.83-69.68-5.22,1.49-1.67,5.99-7.14-2.19-10.1-6.39-11.27,13.35-18.71-10.72-8.49-12.09-.41-10.67-17.42-8.04-10.68,1.51,2.48-7.64-3.98-25.87-8.37-8.45-16.99-27.33-18.02-39.78-1.18-11.98-22.01-5.79-26.7-14.39-3.06-20.78,5.8-18.88,21.24-16.76,14.45-2.75,10.51,17.02,28.05,4.06-1.59,4.66,4.72.56,6.74,3.37,4.78-1.03-3.71-6.28-5.27-6.87-4.46,2.99-6.14-1.39-6.79-5.14-1.43-6.2-16.58-8.54-11.94-15.19,1.45-.87.19-2.52-1.14-2.47-.91-3.81,4.49-1.99,5.68-3.99,5.67-6.96,4.44-1.93,8.04-.89-17.01-52.52,123.79-.89,68.27-31.38-26.63-23.22,44.74-15.26,36.06-32.92,10.63-21.89,44.86-23.72,66.89-25.73,16.94-19.97,11.63,3.93,21.45-2.87,11.1,22.9,2.74,4.8,16.73,17.37,23.54-7.82,25.68,59.94,21.64,67.4-41.22,3.44-25.98,41.14-28.36,71.53-7.22,27.59,22.56,229.8-29.4,171.97-24.74-63.27-78.85-78.61-123.09-20.82Z"/>
  <path class="st1" d="M418.48,444.03c9.13-18.39-4.39-12.37-1.37-28.65-3.95-8.31,1.87-14.24,6.14-20.48-.46-.02-.91-.05-1.39-.05-16.6.97,2.53-22.82-5.42-25.11-8.56-3.14-11.71-10.02-14.12-18.21-9.58-9.65-15.36-3.55-21.45-14,2.7-15.63-15.41-16.94-24-15.29-7.01,6.83-7.64-4.42-13.6.35-11.23,8.77-13.91-13.17-16.66-21.37-3.2-2.59-.59,5.13-6.93,2.96-4.79,8.54-5.87,4.12-13.14,4.01-9.97,9.82,2.7,13.97-9.56,16.99-1.22-15.44-12.59,9.03-17.7-6.48,10.69-3.75,5.91-5.11.66-10.94-15.52,5.04-21.32-12.94-21.74-2.34,6.47,8.34-6.13,16.01-2.29,7.51-9.07-5.21-5.38,8.15-8.25,11.87-3.66,3.57-8.22,2.7-6.62,10.19-7.11,7.59-17.09,3.17-23.83,16.19-11.58,3.84-16.03-6.52-17.78,6.83-1.14,17.02,7.72,10.37-12.1,19.73-21.62,32.75-24.88-18.56-16.1,36.89,12.95,17.74-2.21,37.75-21.09,29.72-7.8-16.24-25.13-62.12-40.7-30.47,1.01,19.12,3.5,19.25-16.03,30.72-17.07,38.41,18.77,52.26-4.75,66.42-14.26,23.63-6.16,40.56,12.88,51.27.01-.02.02-.03.03-.05,153.32,56.48,172.53-64.69,202.49-18.83,4.16,1.41,12.95,7.16,15.68,1.56,2.04.93,16.21,7.2,17.82,4.1,12.37-68.62,20.76-17.67,46.72-54.81,4.19,2.68,6.64,6.76,8.7,7.95-30.87-29.79,20.3-34.6,25.5-58.2v.02Z"/>
  <path class="st1" d="M448.23,693.18c.89-.08,1.77-.16,2.64-.23,5.2-5.99,8.84-8.48,12.05-8.23,3.04.21,4.6,2.67,5.73,4.47.46.73,1.24,1.96,1.65,2.05.02,0,.52.09,1.82-.81.6-.42,1.35-.55,2.06-.36s1.3.67,1.61,1.33c2.24,4.63,4.55,9.39,5.58,11.02,2.23-.27,4.81.61,9.53,4.67,3.29-.75,6.44-.28,9.26,1.39-3.78-17.18-15.43-23.2-27.76-29.57-13.57-7.01-28.96-14.96-33.52-39.08-.07-.38-.05-.78.05-1.15,3.86-13.52-1.86-103.04-14.1-113.37-.57-.48-1.02-.66-1.43-.66-2.17,5.8-3.83,8.29-6.17,9.35-2.48,1.13-4.88.19-7.65-.89-2.16-.85-4.85-1.9-8.5-2.44-.68-.1-1.29-.48-1.69-1.04-.39-.56-.54-1.27-.4-1.94,1.57-7.51.04-16.61-2.18-23.65-.59.49-1.27.85-2.05.99-2.64.47-4.56-1.64-6.6-3.86-1-1.09-2.09-2.28-3.35-3.36-11.05,14.78-19.53,14.65-25.8,14.55-7.4-.12-12.26-.19-19,37.19-.04.25-.13.49-.24.71-.73,1.41-2.64,5.09-19.2-2.14-3.74,3.74-10.32.77-14.46-1.1-1.09-.49-2.11-.95-2.86-1.21-.53-.18-.98-.53-1.29-1-3.67-5.61-7.22-8.66-10.87-9.32-6.27-1.14-13.72,4.32-24.02,11.88-26.41,19.38-70.45,51.69-163.79,18.19.74,1.24,1.08,2.86.69,5.55.15.06.3.13.45.19,1.06.43,2.65,1.08,2.97,2.92.35,2.02-1.26,3.64-3.09,5.26-.21.19-.46.34-.72.45-1.17.48-1.66.85-1.84,1.02.18.48.9,1.43,1.4,2.08,1.07,1.41,2.29,3,2.84,4.98.25.91-.02,1.88-.71,2.52-.72.66-.66,1.07-.64,1.27.23,1.64,2.9,3.97,6.02,5.94.41-5.27.89-7.34,2.86-8.39,2.06-1.1,4.06.06,6.84,1.67,1.29.75,2.86,1.66,4.81,2.61,26.82-3.07,35.99,19.69,44.86,41.72,4.29,10.64,8.72,21.64,15.07,29.13.64.76.78,1.82.34,2.71-1.83,3.76-3.94,5.94-6.46,6.67-3.4.98-6.39-.9-9.02-2.55-3.41-2.14-4.67-2.62-6.08-1.39-.3,1.1-.68,1.93-1,2.55.23.13.53.29.92.48.51.25.91.67,1.15,1.19.82,1.78,1.03,3.17,1.09,4.16.83.02,1.9,0,2.42,0h.14c2.71.11,4.37,2.07,5.71,3.65,1.44,1.7,1.73,1.82,2.06,1.7.19-.07.39-.12.6-.15,2.39-.3,4.94,1.86,9.25,5.69.45.4.97.86,1.52,1.34.03-.11.07-.22.12-.33.6-1.38,1.72-1.71,3.15-1.61-.32-1.31-.13-2.38.99-3.18.24-.17.48-.3.72-.39-.19-.67-.22-1.35,0-2.05.16-.53.59-1.43,1.72-2.01,0-.01,0-.03-.02-.04-.6-1.18-.18-2.62.96-3.29s2.6-.34,3.34.75c.24.36.49.44,1.69.55h.09c-.07-.72.03-1.5.79-2.18.67-.6,1.61-.79,2.46-.51,1.1.37,1.46,1.15,1.66,1.94h0s0,.06.02.12c.04.17.07.34.11.5v.03c.21.14.63.34.92.48.2.09.4.19.62.3,0-.81.2-1.58.75-2.23.65-.76,1.69-1.05,2.64-.76.46.14,1.32.86,2.2,1.81.52-.16,1.02-.15,1.46-.04.55-.46,1.23-.69,1.94-.66.27.01.51.06.74.13.02-.02.03-.04.05-.05.86-.86,1.89-.97,2.61-.93.34-.42.81-.72,1.35-.85.14-.06.52-.49.75-.75.68-.77,2.11-2.38,4.32-2.21.63-.72,1.3-1.73,1.95-2.72,1.64-2.49,3.5-5.32,6.51-6.39.55-.2,1.14-.19,1.67,0,.63-.93,1.33-1.74,1.98-2.5.75-.86,1.46-1.68,1.95-2.55.33-.59.88-1.01,1.5-1.18.02-.06.04-.13.05-.2.05-.17.11-.34.2-.5.22-.41.87-1.67,2.31-2.04,1.4-.37,2.49.34,3.13.77.73.48,1.27.83,2.59.46-.03-.89.05-1.99.94-2.91.91-.94,2.16-1.13,3.67-1.14.39-.33.75-.67,1.08-.98.86-.8,2.09-1.95,3.51-1.63,1.22-2.92,2.05-4.54,3.89-4.77.75-.1,1.48.12,2.06.58,1.36-.45,4.07-1.95,5.79-2.9,2.53-1.4,4.92-2.72,6.81-3.32.74-.23,1.54-.12,2.17.32,1.99,1.36,5.39,2.2,8.4,2.94,1.18.29,2.3.57,3.33.87,1.36.34,2.33,1.33,3.11,2.46.7-1.04,1.84-2.23,3.54-1.98,2.34.34,2.84,2.68,3.41,5.38.27,1.27.89,4.19,1.58,4.77.18-.03.84-.22,2.07-1.31.47-.41,1.08-.66,1.7-.62,1.71.04,2.46.99,2.75,1.56l.09.18c.87-1.61,1.71-2.28,3.22-1.98,2.14.44,2.13,2.57,2.12,3.6,0,.44,0,1.34.09,1.69.09.15.16.31.22.48.33.98,1.43,1.89,2.59,2.54-.5-.75-.56-1.74-.12-2.56.5-.95,1.56-1.47,2.62-1.29,1.9.32,4.69-.15,6.35-1.65,1.03-.93,1.48-2.14,1.37-3.7-.06-.82.29-1.61.93-2.12.64-.51,1.49-.68,2.28-.44,2.3.69,5.27,1.04,8.42,1.41,9.62,1.14,22.62,2.69,22.69,16.61,1.76.7,3.15,2.06,3.9,3.9.94,2.3.63,4.85-.77,6.34-.6.64-1.36,1.05-2.19,1.21-1.07,2.06-2.02,3.38-2.9,4.25.12.1.22.22.32.34.61.79.69,1.86.21,2.73-.04.39.32,1.35.44,1.67.13.34.4,1.04.35,1.8,6.91,11.89.35,26.62-4.12,36.66-1.42,3.18-3.29,7.38-3.48,9.26,3.07-.86,6.46-1.62,9.75-2.36,7.89-1.76,17.71-3.96,19.32-7.32.21-.44.41-1.19-.28-2.6-.34-.69-.34-1.5,0-2.19,10.68-21.99,42.23-24.77,65.27-26.8v-.02h0Z"/>
  <path class="st1" d="M829.9,570.11c-.2.05-.4.09-.61.09-.23,0-.47-.03-.7-.1-.81-.23-1.44-.86-1.69-1.66-4.44-14.33-18.03-26.5-40.41-36.17-1.05-.45-1.66-1.57-1.48-2.7,1.4-8.57.58-10.05.4-10.26-.36-.14-1.96.12-3.03.3-3.01.5-7.13,1.19-11.65-.82-.52-.23-.95-.63-1.21-1.14-1.04-2.02-3.26-4.87-5.61-7.88-5.42-6.95-10.53-13.51-8.2-18,.93-1.79,2.68-2.6,4.38-2.95-.35-.6-.73-1.24-1.1-1.88-3.86-6.52-9.16-15.45-3.49-19.55.53-.38,1.18-.54,1.82-.45.84.12,1.48.19,1.96.23-.02-.07-.05-.15-.07-.22-.22-.69-.49-1.55-.73-2.53-.17-.68-.05-1.39.33-1.98.88-1.36,1.88-3.9,2.94-6.58,2.64-6.7,5.62-14.28,11-15.84,1.57-.45,3.16-.36,4.76.27,3.09-8.52-7.52-28.57-14.73-42.17-4.34-8.2-8.1-15.29-9.01-19.55-.15-.7,0-1.43.43-2,2.98-4.06,1.87-5.57-.15-8.3-1.83-2.48-4.51-6.1-1.44-11.48-1.24-1.25-2.43-2.2-3.34-2.23-.78-.06-1.82.59-3.11,1.82-.8.77-2.01.92-2.97.37-3.11-1.77-4.08-6.48-5.01-11.03-.32-1.57-.77-3.76-1.23-4.95-.02.02-.04.04-.07.07-.38.39-.88.64-1.42.72-1.6.23-3.05.59-4.32,1.07-.68.25-1.44.2-2.07-.15-.13-.07-.25-.15-.36-.24-.47-.14-.91-.31-1.33-.52-15.5,9.87,4.56,41-39.5,44-32.24-.38-16.9-11.61-30.05-15.15-6.92,2.87-2.16,12.91-6.98,17.42-3.86,11.88-6.87,2.99-14.49,11.08-9.51-7.07,8.19-4.27-1.92-10.47-7.9-1.01-14.85-4.4-23.79-4.79-7.59-2.53-5.12-10.73-10.18-8.29-3.43.23-.89-4.16-2.1-5.65-11.82-1.53,9.38-13.63-11.64-16.53-2.16-11.32-6.52.74-9.92,1.91-34.01-16.25-4.99,18.51-25.19,10.43-6.87,11.55-9.57-2.31-13.74-6.86-7.17-12.18-.42-3.12-12.76-4.46-4.17,3.76-8.33-3.87-11.24,1.41-.52,1.71,2.78,5.7.35,6.1-5.67,1.4-7.38-13.37-11.51-4.87,1.72,9.74-3.06,1.26-3.69,10.41-7.64-10.37-17.64,44.38-37.4,17.99-12.24,4.81-33.78-45.04-41.01-21.11,6.88,7.32,5.92-.08,5.29,15.78,2.29,4.87,1.02,8.93-1.27,12.77.36.24.66.57.86.96.41.81.34,1.78-.17,2.53-.58.85-1.19,1.7-1.81,2.55-3.72,5.14-6.92,9.59-4.14,15.45.23.48.3,1.01.2,1.53-1.16,6.25.36,8.44,1.96,10.76,2.84,4.1,4.46,7.82-.69,18.3-2.32,9.74-11.22,16.17-19.82,22.39-7.66,5.53-14.9,10.76-15.35,17.19-.32,4.54,2.64,9.75,9.05,15.94.43.42.68.96.74,1.52.63-.63,1.29-1.75,2-3.5,3.6,8.71,5.92,20.59,4.01,29.78,13.17,1.95,14.44,10,20.03-5.58,17.84-8.53,23.89,102.63,19.85,116.75,8.37,44.31,53.34,30.25,61.39,69.19.62,1.57,1.22,2.72,1.53,3.44.04.05.08.09.12.14,7.39,8.82,10.04,26.5,10.96,36.26.47,4.99.72,10.54.67,15.57,18.42,36.09,35.17-39.76,100.17,1.21-8.77-39.41,17.25-83.81,47.71-107.59,8.26-6.46,16.84-11.37,25.14-14.26.27-.09.54-.21.81-.3,6.4-7.26,9.84-19.27,14.73-29.43,4.42-9.24,10.02-16.96,20.14-18.15,26.41-2.45,28.35,39.62,52.79,41.61,1.22-1.92,3.32-3.92,6-6,13.37-2.88,27.68-12.18,37.04-24.51,8.59-6.75,15.16-14.21,15.71-22.56-2.3-4.33-4.42-7.43-5.64-10.07-.16-1.27-.42-2.54-.72-3.82v-.03h-.01Z"/>
  <path class="st1" d="M1214.31,523.69h-.06c-17.07-36.67-47.42-37.3-58.53-39.2-8.89-1.52-13.38,11.53-14.82,16.81-.39,1.43-1.3,2.65-2.54,3.46l-34.01,22.05c-1.32.86-2.92,1.16-4.46.85-9.78-2.01-46.32-11.39-62.67-41.91-16.65-31.09-54.99-29.56-64.1-28.73-1.3.08-2.7.37-4.14.8-2.01,2.27-3.96,4.49-5.83,6.62-.19.21-.37.42-.55.63-.7.8-1.39,1.59-2.06,2.37-.24.27-.47.54-.7.81-.68.79-1.34,1.55-1.98,2.31-.16.19-.33.38-.49.57-.77.91-1.51,1.79-2.22,2.64-.17.2-.32.39-.48.58-.53.64-1.05,1.27-1.54,1.88-.21.26-.42.52-.62.77-.44.55-.85,1.08-1.25,1.6-.17.22-.35.45-.52.67-.54.7-1.04,1.39-1.49,2.02-58.39,67.19-84.9,14.05-93.06,51.21-7.51-1.87-5.23,6.55-3.33,11.12-.62.21-1.21.42-1.77.63-.13.05-.25.09-.38.14-.54.2-1.06.4-1.55.59-.08.03-.15.06-.23.09-.44.17-.86.35-1.26.52-.09.04-.18.07-.26.11-.43.19-.84.37-1.22.55-.09.04-.17.08-.25.12-.35.17-.68.33-1,.5-.04.02-.08.04-.12.06-.34.18-.65.35-.95.53-.07.04-.14.08-.21.12-.29.17-.57.35-.83.52-.02.02-.04.03-.07.05-.24.16-.46.32-.67.48-.05.04-.1.07-.15.11-.22.17-.42.34-.61.5-.03.03-.07.06-.1.09-.17.15-.33.31-.47.46-.02.03-.05.05-.07.08-.16.17-.31.34-.44.51-.03.03-.05.06-.07.1-.27.36-.51.71-.7,1.08-.01.02-.03.05-.04.07-.75,1.42-1.03,2.92-1.61,4.67.3,1.22.48,1.89.48,1.89-.75.6-1.44,1.17-2.08,1.72-.13.22-.26.44-.41.67-.03.05-.06.1-.09.15-.14.22-.29.45-.46.67-.03.04-.06.09-.09.13-.79,1.12-1.84,2.34-3.17,3.67.67.72.87,1.79.46,2.72-.13.29-.23.57-.3.82.37,1.44.67,2.94.89,4.48.59,1.22,1.41,2.62,2.35,4.21.93,1.57,1.98,3.35,3.07,5.41.22.41.32.87.29,1.34-.53,8.05-5.75,15.73-16.41,24.16-9.47,12.35-23.86,21.9-37.74,25.06-2.43,1.93-4.06,3.57-4.99,5.02-.5.78-1.38,1.21-2.31,1.15-.25-.02-.49-.07-.74-.1-.03.03-.08.06-.11.09-.42,2.02.33,3.97,2.61,5.85,1.5-.28,3.17-.63,5-1.02,37.73,15.38,78.6,39.32,120.23,55.12,19.53,6.2,39.3,11.21,59.22,15.13.2-.93.52-1.8,1.02-2.58,7.36-11.61,47.79-1.33,98.97,11.68l3.9.99.13.38c6.62-23.78,34.71-26.53,99.07-25.88l.27-1.32,5.64-20.43c.03-.11.06-.23.08-.34l5.22-24.37c.28-1.3.12-2.66-.46-3.86l-5.54-11.51c-1.08-2.24-.67-4.9,1.03-6.71l13.24-14.12c.25-.27.53-.52.83-.73l16.88-12.38c.66-.49,1.22-1.1,1.64-1.82l7.36-12.61c.57-.97.85-2.08.82-3.21l-.57-18.76c0-.21,0-.42.01-.62l1.23-16.61c.01-.15.02-.29.02-.44v-1.09c0-3.89,3.53-5.86,7.42-5.84.73,0-.71-4.37-7.42-18.77h0Z"/>
  <path class="st1" d="M982.67,796.62c.06-4.03.13-8.58.19-13.75-13.94-9.7-16.61-26.06-7.04-42.99-8.16-9.99-12.24-17.4-12.5-22.76-.09,0-.18,0-.28-.03-20.27-3.99-40.29-9.1-59.49-15.2-.04-.01-.09-.03-.13-.05-22.93-8.7-45.64-19.87-67.6-30.67-18.11-8.9-35.23-17.32-51.97-24.19-1.56.33-3,.63-4.31.87-.73.14-1.48-.06-2.05-.53-3.66-3.02-3.91-6.17-3.47-8.29v-.03c-10.8-2.45-17.15-12.14-23.28-21.56-6.92-10.62-13.45-20.65-25.78-19.51-7.49.88-12.93,5.89-18.12,16.74-1.49,3.09-2.87,6.44-4.21,9.67-3.05,7.38-6.21,15.02-10.9,20.34-.29.33-.67.58-1.09.72-.1.03-.19.07-.29.11-.17.07-.35.13-.52.19-7.86,2.74-16.3,7.53-24.39,13.86-29.72,23.2-55.34,66.75-46.81,105.08.15.65.02,1.32-.33,1.87,172.26,109.91,30.66,118.32,230.84,116.61,27-17.51,16.35-11.74,34.9,9,13.75,6.34,16.26,22.81,22.57,35.2,16.71-8.57,12.86-9.87,12.26,8.77v.02c-1.44,12.34-2.09,21.1.24,23.66v.14c7.3-8.34,22.5-17.01,38.32-26.03,13.8-7.87,27.94-15.94,34.27-22.81l-1.5-8.78c-.9-5.3,1.46-10.19,3.75-14.92,2.18-4.51,4.44-9.18,3.79-14.12l-.39-2.94,2.36,1.79c2.48,1.88,3.17,1.65,3.18,1.65.53-.35.44-3.35.39-4.96-.11-3.59-.24-7.66,2.14-9.54.64-.5,1.4-.8,2.29-.9-6.51-8.74-11.34-14.22-14.94-18.31-10.59-12.02-10.58-12.61-10.1-43.42h0Z"/>
  <path class="st1" d="M1125.98,964.47c-.04-.19-.14-.69.78-1.27l1.38-.88-1.2-1.06c-.27.36-.59.67-1.02.87-1-1.83-2.26-3.52-3.67-5.14-2.29-2.13-4.32-4.12-6.14-5.98-7.45-6.51-15.79-12.5-17.28-21.75,5-24.14-28.13-20.07-30.28-38.84,10.56-37.69,11.25-67.15,8.47-90.14-8.82-34.65-13.25-57.61-10.1-72.76-.43-.11-.82-.32-1.13-.62l-2.9-.74c-46.23-11.75-89.85-22.84-96.24-12.76-.31.49-.54,1.06-.69,1.77-.01.07-.04.13-.06.2-.8,4.6,3.18,12.31,11.86,22.94.65.8.75,1.91.24,2.81-8.98,15.88-6.62,30.72,6.29,39.71.68.47,1.08,1.25,1.07,2.08-.06,4.91-.12,9.26-.18,13.13v.62c-.32,20.29,2.84,34.2,9.47,41.73,3.63,4.12,8.53,9.69,15.07,18.47.53.72.64,1.67.29,2.49-.36.82-1.12,1.39-2.01,1.49-.43.05-.76.17-1.03.39-1.38,1.09-1.27,4.63-1.18,7.47.13,4.2.03,6.13-1.51,7.14-.27.18-.56.3-.87.36-.85.18-1.83-.04-3.05-.69-.15,4.69-2.25,9.03-4.14,12.94-2.22,4.58-4.31,8.9-3.54,13.42l1.5,8.78c.13.76-.1,1.54-.62,2.12-6.61,7.17-20.97,15.36-34.87,23.29-15.76,8.99-30.65,17.48-37.68,25.5-.48.55-1.17.85-1.88.85-.29,0-.59-.05-.88-.16-.26-.1-.48-.24-.68-.4-2.14,2.94-3.24,5.85-2.92,8.7-.45,8.57-.62,12.13,1.22,13.93,1.46,1.42,3.65,1.25,7.28.96,2.96-.24,6.96-.55,12.43-.21.71,5.4,1.31,10.32,1.84,14.69,5.08,41.93,5.56,42.28,51.94,37.67,2.7-.27,5.57-.55,8.6-.85l.38-.07.17-.12c.53.51,1.23,2.69,1.61,3.89.77,2.42,1.38,4.34,2.73,4.85.37.14.76.16,1.14.06.16.04.31.07.46.1l-1.5.19,2.19,1.82c.56.47.66,1.88.25,3.58-.77,3.21-2.83,6.03-4.09,6.32l-2.65.61,2.19,1.6c1.08.79,2.54,2.18,4.22,3.78,4.69,4.48,10.77,10.28,16.11,10.27,1.18,0,2.33-.28,3.41-.93,1.35.19,2.87.2,3.82-.78,1.19-1.23.78-3.1.23-5.68-1.16-5.39-3.11-14.41,8.52-24.06,9.35-4.93,10.01-9.29,10.6-13.14.5-3.27.93-6.1,6.76-9.58,2.74-.44,4.46-.52,5.5-.58,1.18-.06,1.9-.09,2.43-.69.51-.57.47-1.25.43-2.04-.03-.57-.08-1.41,0-2.62,5.62-4.24,10.49-6.52,15.21-8.72,8.1-3.79,15.1-7.06,22.95-18.74l.17-.25.03-.3c.31-2.67,3.46-5.94,5.81-6.02.42,0,1.72-.07,2.24,2.63l.11.59.53.28c3.65,1.91,5.23-.81,6.75-3.44,1.93-3.34,4.58-7.91,12.35-10.43l4.87-1.58-5.05-.82c-1.25-.21-2.62-1.29-2.84-2.25h-.02,0Z"/>
  <path class="st1" d="M1337.46,922.44l.03-.02c-.31-.15-.63-.28-.93-.44-15.63-2.13-.16-1.15-8.85-7.21-23.79-6.4,2.62-29.33-13.52-28.31-20.47-2.62,1.84-18.81,2.76-30.51,4.49-23.31-30.61-17-32.79-36.51,2.93-8.48-12.54-21.09-17.32-26.18-2.79-3.8-.53-11.6-6.81-11.32-6.32,1.44-9.06-7.6-6.49-12.32,2.78-1.21,13.55,1.75,9.64-3.96-5.49-25.58,4.05-48.06,20.4-64.7l-1.1-.32s.06-.04.09-.06c-46.31.02-83.65-.97-113.42-1.31l-.1.47c-.24,1.16-1.26,2-2.45,2h-.03c-66.19-.67-90.74,2.86-96.64,24.05-.03.12-.08.23-.12.34-3.9,14.58.58,38.04,9.62,73.55.03.1.05.21.06.32,3.43,28.35.68,58-8.41,90.62,1.03,6.79,7.31,10.13,13.95,13.67,8.99,4.79,19.16,10.21,16.33,25.02,1.33,6.98,7.28,12.06,13.58,17.43.94.8,1.88,1.6,2.8,2.41.05.04.1.09.14.13,1.91,1.95,3.95,3.94,6.05,5.9.06.06.13.12.18.19,1.02,1.17,1.89,2.3,2.65,3.42.38-.02.75.05,1.09.19.73-3.33.2-7.39,4.76-4.28,3.74-2.1-5.12-6.03-.02-8.12,7.29.09,2.48-6.51,7.9-8.89,24.18-14.51,72.64,4.47,90.59,18.69,1.99-.54,8.01,3.91,7.71.46-13.8-27.68,12.87-49.14,30.2-52.72,12.64,5.97,38.51,28.04,60.94,27.91,7.48-5.75,8.7-8.35,7.51-9.56l.02-.03h0Z"/>
  <path class="st1" d="M988.62,419.94c.16-.93.83-1.69,1.73-1.96,6.48-1.98,14.24-5.33,17.7-9.07l-4.13-10.45c-.07-.08-.13-.17-.19-.26-5.62,5.78-25.01,4-30.81,11.48-12.04-9.3,4.31-26.93-21.51-19.01-3.01-1.85-17.77-5.51-19.54-9.23-3.2-8.91-9.15-.21-9.76-10.86-10.39-9.95-9.13,6.1-18.69,4.51.84-22.35-14.54-26.18-4.12-49.84,4.69-16.42-10.14-13.21-7.81-23.31,22.13.03,24.67-33.77,26.24-50.17,15.98,4.53,4.82,7.72,14.59,7.25-13.8-6.54-20.15-19.33-9.07-42.73-12.15-31.26,22.92-8.46,6.19-31.86,2.23-28.64-14.36-8.51-4.04-39.07-11.89-11.58-12.06-23.41,6.08-28.98.1-7.01-18.55-11.66-6.18-15.87l-5.6-27.63c.14-.07.29-.14.43-.22l-.46-.02c-5.73,3.06-6.29,1.66-6.29-4.66-10.74.62-3.58,12.27-20.45,5.03-3.61.7,2.15,9.25-4.61,5.78-15.78-.75.28,35.77-16.92,14.41-4.25-3.41-7.31,2.96-11.1,4.31-9.81-6.54-24.41,1.38-31.94,3.05,4.16,4.44-.53,6.84-4.11,8.07-10.11-9.44-20.64,5.85-32.74,1.9-1.17,4.94,2.5,8.5-5.96,6.61-16.33.72-19.37.92-19.14,17.52-12-5.48-3.35-6.79-4.64-11.98-33.65-2.36-8.1,10.5-24.87,6.64-3.06-3.86.14-5.66-5.51-3.45-7.1-3.32-3.29,4.31-7.09,2.72-.4-6.22-4.16-1.53-5.63-7.76-6.37-4.19-5.08,2.92-10.33,2.37,2.68,12.27,2.29,7.77-5.59,5.1-13.33,7.11,18.38,7.8-.82,21.3,1.28,9.5-9.81-1.79-5.92,6.25,11.98-.27,5.27,4.05,16.09,5.72,4.4-5.83,15.7-4.56,10.08,3.99-8.89,12.3-6.51-5.14-12.77,0-12.58,23.59,19.81,20.7,35.87,29.32,10.84,20.18-10.63,10.15-20.53,13.39-6.59-7.45-3.61-5.05-11.02-2.11-8.93-3.26-3.14-3.43-11.46.84-6.13-.72-.84,1.94.26,3.93-3.09,6.12-20.25,14.86-15.45,21.22.2,4.24,4.96-.14,4.9,3.71-1.59,11.67,4.02,4.65,5.95,11.31-1.36,4.73,5.58,8.99,2.46,11.4l-29.3,9.61-14.02,15.41c-2.36,3.25,2.93,15.61,5.81,8.01,28.72,10.68-.61,14.94,14.94,18.31,30.91,3.89,10.32,13.19,37.55,14.65,6.88,2.52,8.45,14.58,14.82,15.44.02.09.05.19.07.28,1.39-.52,2.99-.93,4.83-1.2,6.22-6.3,4.4,12.69,9.33,15.5,4.63-4.45,7.32-2.51,11.36,1.94-7.54,9.97,8.43,10.65.43,21.54,2.6,12.11,32.34,53.22,22.23,65.62-9.67-7.06-13.62,14.1-17.54,20.14,1.32,5.21,3.22,6.63-3.93,5.61-5.35,3.87,5.84,17.58,7.04,21.68-16.4-.82,3.49,17.18,7.73,25.41,10.77,4.77,19.33-8.5,15.74,13.46,23.56,10.18,36.03,22.6,40.93,35.21.05-.05.09-.11.14-.16.35-.31.68-.62,1-.91l.04-.04c1.46-1.39,2.66-2.74,3.55-3.99.04-.07.08-.12.12-.17.15-.19.26-.36.36-.52l.06-.1c.17-.26.28-.45.39-.64.14-.24.32-.45.52-.62.29-.25.58-.5.89-.75-.03-.12-.06-.24-.09-.36-.11-.46-.09-.94.05-1.38.17-.52.32-1.02.46-1.5.34-1.16.68-2.36,1.32-3.55.02-.03.04-.07.06-.11.27-.5.56-.93.81-1.26.07-.11.15-.21.23-.31.16-.2.33-.39.51-.59,0,0,.02-.02.02-.03.02-.03.04-.05.07-.08.19-.21.41-.42.64-.63.03-.03.06-.06.09-.08.04-.04.05-.05.1-.08.2-.17.42-.35.66-.54.03-.02.13-.1.16-.12.24-.18.49-.37.77-.55.04-.03.08-.06.12-.08.29-.19.61-.39.94-.58l.24-.14c.29-.17.63-.36,1.02-.57.02,0,.08-.04.1-.05l.09-.05c.27-.14.63-.32,1-.5.09-.04.2-.1.32-.15.34-.16.76-.35,1.2-.54.08-.04.17-.08.26-.11.01,0,.14-.06.15-.06.4-.17.81-.35,1.25-.51l.27-.11c.4-.15.85-.33,1.33-.51-1.26-3.78-1.88-8.03.29-10.56.78-.9,2.12-1.82,4.35-1.82h.01c4.13-15.49,12.6-14.99,23.2-14.36,14.69.87,36.9,2.18,69.8-35.63.45-.63.94-1.31,1.48-2l.52-.67c.4-.52.82-1.07,1.27-1.63l.63-.78c.49-.61,1.02-1.25,1.56-1.9l.5-.61c.7-.84,1.44-1.72,2.22-2.63l.48-.56c.49-.58.99-1.17,1.51-1.76l.49-.57c.27-.32.5-.58.73-.84.64-.74,1.32-1.52,2.01-2.32.24-.28.42-.49.61-.7,1.84-2.1,3.8-4.33,5.81-6.6.31-.35.71-.6,1.16-.74,1.25-.37,2.44-.63,3.53-.78,9.3-12.31,14.96-23.98,16.82-34.7v-.06h.01Z"/>
  <path class="st1" d="M927.77,146.15c-4.97,14.71-3.39,16.11-1.21,18.05,3.48,3.1,6.29,6.72,5.44,19.51,4.03,5.78,5.25,9.27,4.2,11.95-1.1,2.81-4.1,3.44-6.75,4-2.88.6-4.83,1.12-5.72,2.76-.85,1.56-1.21,5.08,1.85,12.95.25.64.22,1.35-.07,1.98-9.16,19.34-6.76,32.15,7.32,39.12,2.65-.16,6.04-.5,7.91-.69,2.16-.22,4.2.9,5.09,2.8,2.25,4.77,15.86,5.52,22.85,4.59.3-.04.61-.05.92-.04,3.77.21,5.16-.3,5.65-.77.75-.7.76-2.88.78-5.39,0-.68,0-1.41.03-2.16.04-2.23,1.48-4.16,3.59-4.79,5.29-1.59,10.54,2.21,15.18,5.56,2.11,1.53,5.29,3.81,6.42,3.68.35-2.33,2.61-3.99,4.49-5.36,1.02-.74,2.07-1.51,2.69-2.23,0,0,0-.04-.04-.09-2.88-4.22-3.65-7.04-2.52-9.14.44-.82,1.59-2.2,4.28-2.14h.08c16.73-7.99,25.56-21.65,28.63-44.26-.67-3.54-3.68-6.77-6.6-9.89-3.49-3.73-7.09-7.59-6.84-12.27.15-2.86,1.7-5.51,4.71-8.11.4-.36.9-.66,1.47-.87-.12-1.02.07-2.05.58-2.98.75-1.39,2.07-2.34,3.62-2.61.82-.14,1.25-.27,1.48-.35-.01-.17-.05-.45-.16-.87-.69-2.69.91-5.47,3.56-6.18,3.34-.89,6.5-1.74,7.64.99.12.03.27.06.47.09.04,0,.08,0,.1-.03,2.89-3.21,5.88-2.95,7.4-2.5,2.55.74,4.72,2.96,6.37,5.6.3-1.04.94-2.05,2.1-2.93,5.53-4.96,12.24-6.84,17.12-4.79,2.4,1.01,6.46,3.9,6.91,11.97.17.61.18,1.28.14,2.04h.1c5.38.06,8.16,1,9.33,3.15,1.34,2.46-.26,4.98-1.42,6.83-.17.27-.39.62-.59.96,6.13-1.19,9.27,2.95,11.61,6.04.38.5.76,1,1.16,1.5.02.02.08.03.14-.09,3.14-7.1,13.9-13.06,21.31-11.81,4.12.69,6.69,3.55,7.05,7.84,0,.1.06.18.09.19l.5.11c1.49.31,3.18.66,4.41,1.47.08.06.17.08.21.07,4.07-1.02,6.74-2.34,8.68-3.31,2.75-1.36,5.34-2.64,8.25-.44,2.06,1.56,4.05,4.78,8.12,11.76.88,1.5.92,3.35.11,4.95-3.52,6.86-2.98,12.69,1.46,16,4.82,3.59,13.94,3.56,21.38-3.55.67-.63,1.47-1.07,2.31-1.28,16.76-4.1,20.06-.48,23.17,8.13.39,1.08.79,2.19,1.28,3.34,0,.02.03.06.06.1,10.26,12.48,28.14,18.58,36.14,20.79-5.55-2-7.7-12.66.99-4.83,4.91,10.81,10.35-36.55-4.65-10.65-7.19.18-5.05-6.47-3.56-11.33-2-3.29-8.67,4.4-4.76-1.32,7.01-10.9,11.78-29.41-3.79-12.49-2.39-4.35-3.13-13.09,3.89-13.04-3.47-4.85-4.32-8.55-3.65-12.05l-1.74-.2-3.47-.13c-.8-1.56-.55-4.42.89-5.81-13.26-4.9-4.16-19.19,2.01-23.17-5.65-5.25,4.75-5.93,8.47-3.95,5.43-2.36,5.72-21.74-1.97-16.9,2.03,5.04-3.52,2.87-3.56,9.44-3.48.46-4.19-5.07-6.27.91-22.62-2.12-8.24-16.8-31.72-15.95-14.04,7.63,5.5,4.24,3.27,14.39-6.48.94-4.19-5.81-9.63,3.58-9,3.32.26-9.11-5.03-12.58-.94-3.65,4.16-1.4,5.03-4.47.35-3.93-10.92-1.36-6.2-8.15.51-6.08-18.85-20.94-10.09-6.26-2.01,4.43-2.6,7.45,3.07,8.45,2.56,16.55-8.7-9.51-18.47-3.72-3.56,12.11,2.08,9.38-10.44,10.65-8.73-18.76-10,4.68-15.31-.17-17.48-33.43,2.82-6.22,2.24-21.26-8.23-17.65,7.79-20.07.21-28.71-11.65-1.08-6.55-6.38-10.98-13.55,6.94-16.73-8.95-24.14-5.41-33.82-7.51-5.55-8.47,5.32-15.16.73-11.67,20.77-19.9,7.03-34.24-4.07-21.28-8.1-20.22,6.07-22.67-3.7-.4-2.36-7.12-3.47-8.82-4.73-3.5.54-1.18,6.53,1.47,7.37,1.01,9.81-2.84,4.76-6.67.27-9.08-5.28-5.6,12.57-11.01,12.21-7.25,2.34-10.44-1.36-16.81,2.26,2.8,11.79,9.9,3.72.59,14.81-1.78,9.79-14.6-2.67-16.95,4.6-17.57,14.54-47.06,12.65-70.58,23.72.1.18.18.38.24.59.13.55.07,1.12-.15,1.61l5.34,26.33c.25,1.23-.45,2.46-1.64,2.86-1.33.45-2.01.83-2.35,1.06.59.75,2.14,1.96,3.22,2.8,3.15,2.46,7.06,5.52,7,9.68-.02,1.08-.73,2.04-1.77,2.35-4.99,1.53-11.2,4.42-12.42,9.49-1.03,4.25,1.58,9.69,7.35,15.31.69.67.93,1.68.62,2.59h.02Z"/>
  <path class="st1" d="M989.35,400.56c6.41-1.22,13.04-2.48,13.4-5.79h0c.04-.5-.02-1.08-.19-1.73-1.07-.9-2.59-2.54-1.83-4.6,1.12-3.07,5.76-2.93,13.23-2.45,1.12.07,2.46.16,3.17.16,12.21-9.25,19.79-12.13,24.52-9.33,6.1,3.61,4.4,14.74,2.61,26.52-1.12,7.36-2.82,18.49-.09,20.15.68.41,3.68,1.18,13.78-6.22.59-.43,1.32-.58,2.02-.42.76-.67,1.92-3.07,2.56-4.41,1.57-3.25,2.92-6.06,5.68-5.91,1.99.1,3.11,1.84,3.72,3.2,6.73,2.36,7.98,5.65,8.29,8.88,0,.08.02.17.02.25,2.85.29,13.83-2.41,17.58-3.32,1.17-.28,2.37.3,2.87,1.39.59,1.3,1.13,2.26,1.57,3.03,2.21,3.91,1.86,5.38-1.19,10.31.1,1.28.34,1.77.43,1.91.97.12,3.93-1.63,5.54-2.58,1.7-1.01,3.34-1.99,4.9-2.56.68-4.76,3.1-13.28,8.18-14.67,1.1-.3,2.53-.33,4.12.5.38-5.3,1.32-12.79,7.67-13.21l2.84-2.66c15.42-14.47,24.74-23.21,31.44-20.14,4.68,2.14,6.48,9.23,6.07,24.26,10.83.63,11.94-2.7,12.84-5.4.51-1.54,1.15-3.47,3.18-4.35,1.49-.65,3.27-.56,5.86.36-.41-.86-.77-2.07-.58-3.7.4-5.74,5-7.64,8.37-9.04,3.77-1.56,5.08-2.33,4.98-4.9-.01-.35.04-.69.17-1.01,2.84-7.2,7.81-5.69,10.19-4.96.53.16,1.34.39,1.65.39.04-.04.09-.12.16-.25.17-.31.39-.59.67-.81,6.72-5.24,11.74-9.07,19.53-14.03.31-.41.49-.72.6-.94-1.29-.2-4.22.48-5.18,1.92-.5.74-1.35,1.17-2.24,1.11-.89-.06-1.68-.58-2.08-1.38-3.26-6.57-3.95-10.77-2.25-13.6,1.98-3.31,6.34-3.45,10.54-3.59,3.93-.13,7.99-.26,10.31-2.51.72-.7,1.79-.9,2.72-.51.21.09.39.21.56.34.76-1.35,1.29-3.06,1.49-5.24.05-.51.22-1.02.55-1.41,4.35-5.26,24.83-6.72,13.01-11.82h-.05c-35.58-11.39,10.29-17.16-8.52-76.96-.47-.08-.92-.16-1.38-.25,0,0-27.49-5.42-41.68-22.68-.17-.21-.31-.44-.42-.69-3.66-8.57-2.44-14.7-21.55-10.03-.44.11-.86.35-1.19.66-14.49,13.87-36.97,4.46-26.8-15.39.41-.81.42-1.77-.04-2.56-10.62-18.25-7.06-10.67-22.28-6.85-.76.19-1.54.02-2.19-.41-.94-.62-2.66-.92-4.06-1.22-1.16-.25-1.96-1.25-2.06-2.43-.92-11.12-19.68-4.06-23.58,4.77-.79,1.8-3.13,2.19-4.37.66-3.1-3.83-5.34-8.45-11.88-6.25-7.53-2.1,10.35-11.13-6.26-11.31-.63,0-1.22.28-1.67.71-1.99,1.89-.48-3.71-1.05-4.77-.55-13.46-11.89-13.04-19.97-5.72-4.58,3.31,4,9.94-2.82,9.94-1.07-6.37-7.18-16.61-12.78-10.38-.58.65-1.46.96-2.32.84-4.79-.69.69-3.22-7.1-1.14-1.37.37-2.14,1.78-1.79,3.15.78,3.05-.29,3.78-3.31,4.31-1.62.28-2.61,2.01-1.96,3.52.36.84.31,1.37-1.46,1.84-.38.1-.75.27-1.04.53-11.92,10.28,7.42,16.86,9.55,27.81.06.29.06.6.02.9-2.62,19.28-9.76,36.53-30.09,46.21-.35.17-.75.22-1.14.22-4.22-.08-1.49,4.68.35,7.38.65.96.62,2.24-.13,3.12-2.2,2.56-7.02,4.45-6.59,6.92-4.07,6.61-14.94-10.34-23.37-7.8-1.07.32-1.79,1.33-1.81,2.45-.17,7.36.93,11.33-9.1,10.76-.15,0-.3,0-.45.02-6.18.82-22.22.81-25.44-6.01-.45-.96-1.52-1.48-2.57-1.37-2.52.25-4.54.44-6.18.57.02.22.01.44-.03.66-.22,1.12-1.19,1.95-2.33,2.01-3.86.19-6.46.06-7.38-3.2-.13-.47-.46-1.62-5.13-3.24-1.68,17.53-5.12,47.31-26.18,49.26.14,1.52,1.16,2.46,3.03,4.02,3.39,2.84,8.02,6.74,4.93,17.58-.03.11-.07.22-.12.32-5.71,12.96-3.24,19.18-.12,27.04,2.05,5.16,4.34,10.94,4.48,19.21,1.33-.44,2.34-1.62,3.7-3.32,1.57-1.96,3.34-4.18,6.3-4.37,2.4-.16,4.91,1.1,7.9,3.96.46.44.73,1.03.77,1.66.2,3.55.6,3.6,2.06,3.79,2.04.27,5.45.71,7.49,6.19,1.04,1.61,8.73,4.33,12.03,5.5,2.46.87,4.24,1.51,5.47,2.08,7.71-2.27,12.25-2.39,15.08-.42,2.94,2.04,3.15,5.6,3.35,9.04.2,3.35.4,6.8,2.78,9.6,4.03-3.26,10.35-4.46,16.49-5.63v-.04h0Z"/>
  <path class="st1" d="M1402.05,652.22c.26-.34,1.41-2.19,4.96-11.46-.11,0-.21.01-.31.01-.56.02-1.11.04-1.61.07-.88,2.66-2.85,4.31-5.62,4.62-5.5.64-13.73-4.92-15.71-10.59-1-2.86-.33-5.53,1.77-7.37.87-6.47,1.97-7.72,7.65-9.3-3.9-14.29-1.92-32.68,9.05-43.07-4.55-2.1-9.54-5.47-8.88-11.8.04-.4.18-.78.39-1.1-.27-.04-.51-.07-.71-.09-.62-.08-1.17-.15-1.6-.22-.51-.08-.98-.32-1.35-.67-3.77-3.65-5.4-6.8-5.11-9.91.4-4.37,4.39-7,8.6-9.79,6.11-4.04,10.07-7.13,9.45-12.92-.04-.33,0-.65.09-.97.25-.87.46-2.05,0-2.71-1.1-1.56-5.82-1.84-9.27-2.04-5.21-.31-10.59-.63-12.21-4.6-1.34-3.29.56-7.65,6.35-14.37-11.43-11.1-15.93-18.05-15.44-23.71.44-5.04,4.66-7.85,9.14-10.82,6.12-4.07,13.06-8.68,13.83-20.28-.04-.5-.1-1.02-.16-1.54-.36-3.21-.85-7.6,3.23-10.4.3-.21.65-.35,1.01-.41,7.22-1.17,11.32-6.96,14.93-12.06,1.91-2.7,3.66-5.17,5.71-6.72-.62-.27-1.23-.51-1.82-.71,3.65-19.25-14.82-25.39-29.82-30.28-17.47,13.98-5.71,32.06-17.08,25.33-21.74,6.95-50.04,11.69-70.39,20.43-6.53-7.75,4.61-10.52,9.13-15.31-7.84-4.21-8.96-26.33-19.23-16.23-2.83-2.2-3.15-6.4-2.38-9.62-36.39-7.47-29.57,11.19-24.77-38.38.67-13.08-21.68-8.68-13.09-16.96v-.07c-8.07,7.85-28.52-4.23-18.1,16.8,2.84-4.25,13.97-4.56,8.35,2.29-7.98,5.06-13.05,8.94-19.69,14.12-2.65,5.03-8.38-4.34-11.89,4.57.35,8.91-12.82,5.62-13.36,14.27-.5,3.82,3.45,3.53-.56,6.72-14.83-6.74.99,11.05-25.81,8.44,1.57-38.99-10.52-25.82-36.78-1.26-7.06-.42-5.74,11.51-6.66,16.17-7.08-10.75-11.73,5.1-12,10.71-4.94.36-15.45,12.12-15.71.57,4.27-6.8,2.73-5.39-.12-11.63-34.44,8.42-10.78-.83-28.38-6.23-3.44-9.57-5.87,9.41-10.61,7.55-47.28,34.63,14.87-73.69-41.29-30.77-.72.79-20.97-2.58-13.42,3.03.45,1.3.61,2.44.52,3.44.16.55.33,1.13.53,1.78.09.06.16.11.24.17l4.9,12.4c-3.61,5.16-13.45,9.08-19.83,11.03-1.96,11.33-7.86,22.91-15.95,33.99,5.62-.34,16.38-.41,27.86,2.64,16.77,4.45,29.03,13.73,36.44,27.57,3.97,7.41,20.1,32.24,60.97,40.64.9.18,1.82,0,2.59-.5l34.02-22.05c.73-.48,1.26-1.2,1.49-2.02,3.58-13.13,10.02-19.92,17.65-18.62,1.02.17,2.21.34,3.53.52,13.19,1.82,40.56,5.59,56.63,39.64.1.14.2.29.27.45,8.8,18.88,8.3,19.67,7.38,21.1-.5.78-1.37,1.23-2.28,1.22-1.72,0-3.24.5-4.09,1.34-.53.53-.79,1.18-.79,2v1.09c0,.2-.01.38-.02.58l-1.23,16.66v.44l.57,18.68c.04,1.62-.36,3.19-1.16,4.55l-7.36,12.6c-.58,1-1.36,1.86-2.31,2.57l-16.89,12.39c-.19.13-.34.26-.47.41l-13.25,14.13c-1,1.06-1.23,2.6-.6,3.92l5.54,11.51c.81,1.69,1.05,3.63.65,5.47l-5.22,24.37c-.01.1-.06.3-.11.48l-5.14,18.64c9.13.1,18.93.27,29.48.45,24.11.41,51.45.86,83.3.86h0c.47,0,.91.13,1.29.36l.42.12c.42.12.79.35,1.09.65.92-.89,1.87-1.77,2.83-2.62.1-.09.2-.18.3-.27,1.23-1.08,2.5-2.13,3.78-3.15.17-.13.34-.27.51-.4,1.27-1,2.57-1.96,3.88-2.89.18-.13.37-.26.55-.39,1.34-.94,2.7-1.84,4.08-2.71.15-.09.3-.18.45-.28,1.44-.9,2.9-1.77,4.38-2.6.03-.02.06-.03.09-.05,3.12-1.74,6.32-3.32,9.57-4.73.05-.02.09-.04.14-.06,1.6-.69,3.21-1.34,4.83-1.95.07-.03.14-.05.21-.08,1.63-.61,3.27-1.17,4.91-1.69.03-.01.06-.02.1-.03,21.92-6.92,44.84-6.07,60.62,5.31-2.69-2.37-8.28-14.65-1.03-5.58,1.55-.27,2.94-.24,4.19.01.42.27.86.54,1.28.8,3.14-8.05,8.54-21.29,11.02-23.64h-.05Z"/>
  <path class="st1" d="M1550.92,901.45c-6.95-4.93-4.02-2.16-1.65-9.86v-.03c0-.08-.02-.16-.04-.23-.38.1-.6.15-.6.15-1.2.23-2.95.4-5.11.03-.15-.03-.24-.04-.29-.05-3.65-.68-8.01,1.26-8.01,1.26-5.04,2.25-6.24,5.47-10.12,6.74-5.93,1.94-10.95.77-16.02-.42-8.55-2-14.34-5.96-17.28-8.01-4.17-2.9-6.57-5.45-11.38-10.54-5.76-6.09-6.46-8.16-6.74-9.69-.52-2.82.34-4.06-.42-8.43-.64-3.68-.99-5.71-2.53-6.74-2.97-2-6.45,2.31-12.22,1.69-4.13-.45-6.88-3.15-10.54-6.74-6.64-6.52-5.33-10.05-10.96-13.49-3.71-2.26-5.32-1.36-8.85-4.21-2.98-2.41-3.89-4.72-5.9-8.01-3.49-5.72-4.44-4.83-11.8-13.91-6.34-7.82-9.52-11.73-9.69-15.17-.33-6.45,4.79-7.97,4.22-14.75-.41-4.89-3.13-4.77-5.9-12.22-1.32-3.55-.53-3.11-2.95-16.86-1.33-7.52-1.69-8.37-1.69-11.38,0-4.16.69-5.03.84-10.96.14-5.78-.49-5.79,0-8.85.92-5.73,3.17-5.84,3.37-10.12.24-5.09-2.92-5.4-2.53-10.96.13-1.85.65-4.05,1.69-8.43.34-1.42.77-2.56.84-3.37.51-6.08,1.51-6.43,1.51-6.43-.15-.09-.28-.18-.43-.26-.69-.06-1.35-.15-1.99-.26-.63.19-1.27.38-1.95.57-.09-.37-.2-.72-.31-1.05-1.02-.26-1.91-.54-2.58-.76-.37-.04-.72-.16-1.04-.36-1.02-.63-2.03-1.27-3.03-1.9-.54-.08-1.11-.1-1.69-.06.4.61.79,1.1,1.1,1.38,1,.88,1.13,2.39.3,3.44-.83,1.04-2.34,1.25-3.42.47-14.13-10.19-35.96-12.04-58.41-4.95-.04.01-.07.02-.11.03-1.69.54-3.24,1.07-4.74,1.63-.06.02-.12.05-.18.07-1.64.62-3.22,1.26-4.78,1.93l-.18.08c-3.13,1.36-6.28,2.91-9.31,4.6-.02,0-.03.02-.05.03-.01,0-.02.01-.03.02-1.41.79-2.85,1.64-4.28,2.54-.13.09-.31.2-.49.31-1.37.86-2.67,1.73-3.93,2.61l-.52.37c-1.42,1.01-2.66,1.93-3.8,2.83l-.54.42c-1.34,1.07-2.54,2.07-3.65,3.04l-.28.25c-1.37,1.22-2.57,2.34-3.66,3.43-.14.14-.31.26-.48.36-.1.17-.22.33-.36.48-17.42,17.73-24.45,39.72-19.83,61.98,1.11,1.81,1.29,3.42.55,4.79-1.37,2.52-4.83,2.43-8.17,2.34-.78-.02-1.83-.05-2.58,0-.58,2.05-.16,4.84,1.11,6.51,1.08,1.43,2.25,1.36,3.03,1.18.15-.03.29-.05.44-.06,6.15-.25,7.12,5.02,7.68,8.19.27,1.53.55,3.1,1.18,4.04.76.8,1.82,1.82,3.02,2.98,6.87,6.63,17.17,16.58,14.91,24.99,1.09,7.22,8.03,10.25,15.38,13.46,9.4,4.11,20.05,8.77,17.35,23.18-.42,4.69-3.51,9.54-6.49,14.23-2.65,4.17-5.66,8.9-4.69,10.96.31.66,1.51,1.86,6.03,2.47,3.21-.16,5.43.55,6.76,2.18,2.11,2.59,1.1,6.25.04,10.13-1.05,3.85-2.25,8.21-.46,11.33,1.2,2.1,3.81,3.7,7.74,4.76.28.08.54.2.78.36,1.6,1.12,3.75,2.87,3.91,5.19.03.37,0,.71-.06,1.02,1.01.16,2.31.36,3.91.57.31.04.62.15.89.3.13.07.27.13.41.2.12.05.23.11.35.16.26.12.5.28.71.49.17.17.32.37.43.58.44.65.66,1.42.65,2.24,7.8,1.99,18.18-.31,24.6,3.11,1.94-3.74,4.78.3,7.49-.58,7.33-1.71,17.46-10.78,24.03-1.52,28.58,3.11,53.79,1.55,80.45,10.75,8.23-5.04,5.29-.78,6.95,5.27,6.06,7.78,4.79.7,10.06,13.26,32.29.94,18.04,7.38,35.49,17.03-.11-16.91-13.13-40.19,12.9-43.5,1.58-4.87-10.88-3.45-7.78-9.75,10.93-11.79,22.17,2.59,16.39-16.09v-.03h.01Z"/>
  <path class="st1" d="M1616.91,749.19h0l.03-1.55c-7.31,3.85-14.03-34.52-29.12-55.32-15.28-12.76-46.95-11.45-57.64-29.44-16.8-11.33-31.8,7.09-41.3-15.04-20.94,4.32-38.9-27.08-51.64-12.8-6.24-8.37-7.23,6.32-19.57.84-1.17,1.39-4.02,1.94-6.98,2.19-2.79,7.49-5.79,15.01-6.92,15.96-1.85,1.54-7.43,15.22-9.64,20.78l1.23.77c.26.16.48.37.67.61.52.68.97,1.44,1.34,2.25.22-.07.43-.14.64-.21.71-.23,1.48-.13,2.11.26.44.28.88.55,1.33.82.83.5,1.3,1.43,1.21,2.4-.06.56-.3,1.08-.68,1.47-.15.37-.55,1.62-.83,4.92-.06.74-.27,1.47-.51,2.31-.12.43-.26.91-.38,1.43-1.01,4.24-1.51,6.37-1.63,8.02-.15,2.18.34,3.15,1.01,4.49.74,1.47,1.67,3.29,1.52,6.42-.13,2.7-.96,4.22-1.7,5.57-.67,1.22-1.3,2.37-1.7,4.83-.21,1.34-.18,1.87-.09,3.04.08,1.12.19,2.64.12,5.48-.08,3.2-.31,4.98-.52,6.55-.18,1.39-.32,2.5-.32,4.34,0,1.99.17,2.88.79,6.21.23,1.22.51,2.75.87,4.74,1.12,6.39,1.57,9.82,1.84,11.86.31,2.36.38,2.92.99,4.56,1.2,3.24,2.36,4.85,3.37,6.27,1.24,1.73,2.4,3.37,2.68,6.61.36,4.25-1.19,6.95-2.43,9.11-1.06,1.85-1.91,3.32-1.78,5.72.13,2.62,3.3,6.53,9.06,13.63l.08.09c3.32,4.1,5.26,6.07,6.81,7.65,1.83,1.86,3.15,3.21,5.18,6.53.43.71.82,1.37,1.18,2,1.3,2.26,2.16,3.75,4.16,5.36,1.59,1.29,2.59,1.59,3.97,2.02,1.26.39,2.7.83,4.61,2,3.53,2.16,4.81,4.44,6.18,6.85,1.1,1.95,2.35,4.16,5.23,6.99,3.49,3.43,5.79,5.68,9.06,6.04,2.21.24,4.06-.47,5.84-1.15,2.3-.88,4.9-1.88,7.5-.12,2.42,1.62,2.89,4.3,3.59,8.37.47,2.69.39,4.37.32,5.71-.05,1-.08,1.72.1,2.71.15.8.45,2.45,6.1,8.43l.1.11c4.63,4.9,6.96,7.36,10.89,10.09,2.65,1.85,8.17,5.7,16.42,7.63,4.83,1.13,9.4,2.21,14.67.48,1.44-.47,2.4-1.32,3.73-2.49,1.46-1.28,3.27-2.88,6.15-4.16.52-.23,5.19-2.23,9.49-1.43.08.01.18.03.31.05,1.37.24,2.79.23,4.14-.03h.03c-5.02-22.84-28.4-65.15-8.98-82.36-1.2-11.01-36.74-2-24.42-15.41,10.85-8.5,25.75-13.55,40-13.11,9.46-.44,37.12-22.49,39.93-9.45.43,12.22,13.15,5.93,19.97,2.35,14.65,13.01,16.65,4.34,16.65-12.44-2.38-5.64-15.57-1.44-14.41-9.41h-.01Z"/>
  <path class="st1" d="M1816.66,480.77v-.03c2.83-3.35-7.12-3.31-3.99-8.99-4.8-7.85-19.26-3.92-2.03-14.85-2.96-18.5-18.16,5.48-25.79,17.01-2.61-4.28-5.09-6.62-8.5-1.43-5.39,1.42,2.84-10.89-7.36-3.93-2.13-2.53-2.83-3.38-5.86-1.76-2.11-1.29-2.29-6.99-5.34-2.56-4.55,2.23-7.85-3.73-12.34,1.01-1.66-6.78-18.77-29.41-10.23-31.17-2.39-9.97-17.92-9.75-23.69-16.56-2.08-3.66-5.68,4.62-7.06-.69-8.08-23.31-16.7-59.86-49.5-56.45-9.45,4.15.69,10.86-18.82,6.64-3.3,12.17-.12,5.67-10.8,14.07-8.65-9.48-9.7,7.39-19.97-2.72-4.21-4.27-14.3.49-20.27,1.38.01.57-.15,1.14-.51,1.6-1.63,2.08-1.14,3.84-.15,6.5.66,1.77,1.41,3.77.2,5.61-.77,1.17-1.57,1.89-2.22,2.47-.72.65-1.12,1-1.46,1.89-.98,2.59.2,5.68.83,7.34.6,1.57,1.16,2.37,1.7,3.14.71,1.01,1.52,2.16,1.81,4.27.35,2.47-.29,3.98-.8,5.19-.37.86-.61,1.43-.57,2.5.05,1.55.65,2.32,1.63,3.59,1.1,1.42,2.47,3.19,3.1,6.26.61,3,.03,4.97-.4,6.41-.33,1.13-.52,1.76-.21,2.81.45,1.54,1.44,2.18,4.25,3.81,1.57.91,3.52,2.04,5.8,3.72,2.38,1.77,9.48,7.04,13.41,15.2,1.51,3.15,1.7,4.97,1.92,7.08.19,1.84.41,3.92,1.59,7.83.85,2.83,3.09,10.34,8.3,17.18,2.63,3.45,4.3,4.53,6.23,5.77,1.84,1.19,3.92,2.53,6.65,5.86,1.24,1.51,12,15.2,8.94,29.78-.75,3.61-2.09,6.09-3.16,8.09-1.3,2.43-1.59,3.16-1.18,4.17.49,1.22,1.57,1.62,4.32,2.37,2.82.77,6.32,1.72,9.17,5.07,4.34,5.07,3.79,12.13,2.7,26.2-.36,4.64-.8,7.31-1.16,9.47-.44,2.64-.7,4.23-.52,7.77.13,2.47.35,3.53.72,5.29.43,2.05,1.03,4.85,1.79,11.23.66,5.46,1.14,11.39-.84,18.45-.08.26-.15.5-.21.72.24.72.14,1.53-.3,2.18-.06.09-.14.16-.21.24.13.19.26.4.39.63,25.97,22.41,69.09,6.21,66.68,20.81-4.7,11.41,17.39-4.06,19.05-9.82,42.52-6.69-.59-64.81,22.71-94.45,3.37-8.38,17.11-2.12,22.75-5.64,35.53-5.41,4.5-60.64,46.41-46.79-2.17-19.62-13.75-3.83-17.59-20.75v-.02h-.01Z"/>
  <path class="st1" d="M1655.35,615.49c-1.43-11.94-2.24-11.07-2.53-16.69-.34-6.8.89-7.27,1.69-17.55,1.04-13.4,1.56-20.1-2.11-24.39-4.74-5.56-11.93-3.18-13.91-8.13-1.59-3.97,2.68-6.38,4.21-13.7,2.84-13.57-7.4-26.42-8.43-27.68-5.22-6.37-7.42-4.47-12.93-11.7-5.36-7.04-7.72-14.67-8.71-17.98-2.59-8.62-.83-9.26-3.37-14.55-3.68-7.65-10.35-12.57-12.64-14.27-6.17-4.55-9.8-4.87-10.96-8.84-1.05-3.6,1.51-4.76.56-9.42-1.06-5.18-4.63-5.71-4.78-10.27-.11-3.42,1.88-4.02,1.4-7.42-.4-2.85-1.87-2.92-3.37-6.85-.71-1.86-2.16-5.64-.84-9.13.95-2.52,2.53-2.72,3.93-4.85,1.37-2.08-4.08-6.96.07-12.27-2.31-.35-3.06-2.31-.79-7.76-6.4-12.17,1.63-10.81-15.59-7.77-8.37-2.76,11.84-23.78-3.54-18.24-6.86-1.78-3-8.08-6.02-8.17-2.02,4.12-5.62-.19-8.61-1.31-6.14,3.09.99,9.25-9.94,7.16-2.16,1.8-2.6,6.36-1.21,8.79,8.76,13.19-10.62,10.83-12.12,20.79-1.89.83-2.56-2.17-4.03-2.66-4.44,1.05,3.89,7.92.24,7.5-14.06-19.73-18.94-50.03-27.27-60.73-.17.16-.36.31-.58.41-.93.47-2.05.31-2.81-.38-1.28-1.16-2.44-1.59-3.78-1.39-4.53.68-11.03,8.14-19.33,22.17-.28.48-.72.85-1.25,1.06-16.12,6.27-24.68,11.5-25.46,15.55-.58,3.04,3.47,6.81,8.15,11.18,6.62,6.16,14.84,13.83,17.37,25.47,5.39,16.67,1.93,32.22-8.62,38.73-9.38,5.78-21.88,2.57-33.65-8.58-.75.31-1.61.23-2.3-.21-.07-.04-.14-.09-.2-.14-.22-.11-.43-.21-.64-.32-4.9,4.82-9.25,16.45-20.68,18.31-3.43,2.35-2.21,6.42-1.98,9.87-1.93,31.75-46.21,17.01-6.57,54.68-24.92,27.52,18.91,8.04,14.08,24.56,1.81,16.89-29.25,16.03-13.69,31.09,3.17.5,13.59,1.23,4.02,4.14-.66,6.35,6.44,8.94,11.22,10.85-13.66,9.39-15.71,30.62-10.74,45.5-7.11,2.02-7.5,1.25-8.44,8.93-8.93,5.58,13.81,22.01,15.17,9.64,1.08-.17,2.91-.21,4.94-.3.12-.33.25-.67.38-1.01.34-.91,1.17-1.54,2.13-1.62,4.28-.36,5.15-1.15,5.28-1.31.72-.85,1.91-1.13,2.93-.68,5.01,2.23,7.33.47,9.79-1.39,1.6-1.21,3.41-2.59,5.77-2.26,1.09.15,2.11.65,3.12,1.52,7.75-6.24,16.77-.47,25.52,5.12,8.18,5.23,16.63,10.63,25.49,8.8,1.16-.24,2.33.37,2.8,1.46,4.73,11.01,10.22,10.54,18.53,9.82,6.54-.56,13.96-1.21,21.88,4.13.31.21.56.48.75.79,5.64,9.49,18.36,13.36,30.66,17.1,9.6,2.92,19.54,5.94,26.43,11.7.16.13.3.28.42.45,7.35,10.13,12.75,24.29,17.09,35.66,2.88,7.53,6.79,17.79,8.95,18.86.76-.35,1.65-.3,2.36.14.16.1.3.22.44.36,2.82-4.12,5.83-14.95,9.51-35.77,7.58-8.9,17.44-77.07,26.2-74.95-.21-.3-.33-.47-.34-.49.13-.4.32-.98.52-1.69,1.9-6.77,1.37-12.51.77-17.48h-.01Z"/>
  <path class="st0" d="M1492.11,315.35l-.03-.02-13-30.48c-11.59-35.26-44.73-80.19-55.86-106.1-15.02-24.32-57.35-39.41-59.12-67.53,10.99,4.76,14.53-.2,18.32-10.69.78-7.73-9.37-6.51,2.07-10.29,5.13-6.33-13.73-1.45-10.55,4.6-.9,1.78-2.99.2-4.35,1.26-4.42,6.63-19.14-5.45-15.35,8.12-7.76,9.22-42.93,10.49-32.31,21.54-9.43,8.49-16.25,15.66-28.53,12.59-.62,5.89-6.14,5.75-6.26,11.57-.62,1.62-7.87-1.13-8.12,1.12.74,10.56-1.64,27.28-8.75,7.35-2.32-5.21-6.93,5.25-7.49-.61-1-9.37-11.72,1.26-17.3-1.77-2.72,4.24-5.21,7.62-6.51,10.98.52.15.99.47,1.32.91.41.56.57,1.27.44,1.95-.39,2.06-.38,5.08,3.23,10.13.55.76.62,1.77.19,2.61-.43.83-1.29,1.35-2.22,1.35h-.06c-1.55,0-2.11.6-2.42,1.12-.68,1.13-.73,2.97-.4,4.77,3.77-3.66,7.42-6.04,10.19-3.91,4.05,3.13-.27,13.25-3.38,19.06,1.06.16,2.08.72,2.86,2.01.37.61.46,1.35.25,2.03l-.06.2c-.67,2.18-1.91,6.23-1.04,7.38.15.19.46.34.9.42,3.78-6.19,6.72-8.48,9.67-7.6,2.94.87,4.27,4.64,3.94,11.2-.14,2.79-.87,11.53-4.55,13.42.03.04.05.08.07.12.47.82.96,1.71,1.5,2.75l.88.15.37,1.17c9.92,31.52,2.13,48.71-2.53,58.97-2.03,4.47-3.49,7.71-2.52,9.9,1,2.24,4.8,4.37,11.98,6.69h.15l.38.16c2.29.99,4.91,2.43,4.83,4.84-.09,2.87-3.61,4.13-8.49,5.88-3.24,1.16-7.28,2.61-8.62,4.23-.02.02-.07.12-.09.3-.21,2.34-.8,4.37-1.74,6.04l-.8,1.42c-.09.53-.34,1.04-.71,1.41-.51.49-.81.85-.98,1.09.72.4,2.12.89,3.11,1.24,4.55,1.6,12.16,4.28,11.72,12.96v.11c-.98,10.12-2.04,17.37-2.81,22.66-.75,5.13-1.39,9.56-.88,10.42.45.3,2.86.34,4.98.37,4.52.07,11.35.17,21.49,2.25.66.14,1.24.54,1.61,1.11.36.57.48,1.27.32,1.92-.43,1.78-.43,3.91.29,5.5,1.89-1.31,3.71-1.8,5.52-1.48,4.15.74,6.35,5.36,8.67,10.25,1.68,3.55,3.59,7.57,5.88,8.8.69.37,1.16,1.03,1.29,1.8s-.12,1.55-.65,2.12c-1.45,1.54-3.36,2.81-5.2,4.03-2.35,1.56-5.01,3.33-5.23,4.91-.07.49.1,1.04.38,1.57,12.22-4.99,26.95-8.68,41.22-12.25,9.82-2.46,19.09-4.78,27.52-7.47.68-.22,1.42-.13,2.04.23.95.56,1.56.84,1.93.97.18-.72.32-1.94.44-2.97.66-5.62,1.76-15.04,11.87-23.13.66-.53,1.54-.68,2.34-.42,14.52,4.73,34.24,11.16,31.83,31.05.9.39,1.86.85,2.9,1.4.82.43,1.34,1.28,1.34,2.21,0,.12-.03.23-.05.35,26.36,25.18,48.14,2.68,38.29-27.54-6.42-30.19-55.26-33.12,1.45-55.18,13.33-22.54,21.08-26.7,26.95-21.35l-.03-.29.07.04h0Z"/>
</svg>